<?xml version="1.0" encoding="UTF-8" standalone="no"?>
<!-- Created with Inkscape (http://www.inkscape.org/) -->

<svg
   width="1000"
   height="1000"
   viewBox="0 0 1000 1000"
   version="1.1"
   id="svg5"
   xmlns="http://www.w3.org/2000/svg"
   xmlns:svg="http://www.w3.org/2000/svg">
  <path
     d="M 62.042969,62.042969 V 937.95703 H 937.95703 V 62.042969 Z M 680.92578,155.18359 c 0.0795,0.22889 0.11721,0.41684 0.13281,0.79493 -0.24012,0.44932 0.10626,1.65529 0.13086,2.39453 0.17689,2.12506 0.35449,4.248 0.53125,6.37304 0.46795,2.05553 0.35633,4.53055 0.79883,6.50977 v 2.12305 c 1.17672,4.91645 0.94152,10.68076 2.125,15.54297 0.0886,0.92969 0.17497,1.85546 0.26367,2.78515 0.8698,3.39049 0.88479,7.06074 1.85352,10.49414 0.63638,2.25619 1.26709,4.92644 1.99219,7.03906 0.62904,1.83117 0.64708,3.52795 1.46093,5.18165 0.043,0.087 0.35524,0.28222 0.39844,0.39648 0.0445,0.35436 0.0887,0.71204 0.13281,1.06641 1.29136,2.73951 2.69773,5.31814 4.2168,7.79687 6.18544,-1.69617 12.18058,-4.01132 18.45508,-5.37305 l 2.99609,13.8086 c -2.9624,0.64295 -5.79096,1.81644 -8.73633,2.53906 2.47443,1.19859 5.07762,2.24968 8.28516,3.41211 0.39846,0.0439 0.7994,0.0887 1.19727,0.13281 3.56174,1.07947 7.77632,1.46007 11.67773,2.38867 h 1.46289 c 3.04344,0.75504 6.85175,0.47836 10.08399,1.19727 h 1.99218 c 2.24205,0.52747 5.12085,-0.006 7.57032,0.5293 1.60002,0.34965 3.5235,-0.12323 5.30664,0.26562 1.28973,0.28145 3.18921,-0.18621 4.64453,0.13086 1.32422,0.28887 3.09506,0.21761 4.38086,0.13281 l 0.13281,0.39649 c 0.16055,0.28032 0.0644,0.30059 0,0.66797 h -6.37305 c -0.76526,0.4601 -2.9163,0.13337 -3.97656,0.13281 -1.73113,0 -3.7026,-0.0181 -5.04883,0.26562 -1.15918,0.24491 -2.441,-0.30857 -3.84375,0 -3.755,0.82698 -8.32384,0.13701 -11.95117,0.93164 h -2.25586 c -1.94531,0.46119 -4.23756,0.29305 -6.37109,0.79493 -4.05569,0.95344 -8.15526,1.33123 -11.94532,2.52148 -7.95537,2.49809 -14.56676,6.8309 -18.71289,13.15234 -0.87543,1.33436 -1.30523,2.70004 -2.12304,4.11524 -0.55782,0.96474 -1.34225,2.26257 -1.72657,3.32226 -1.48867,4.10429 -2.56297,8.44225 -3.71875,12.88282 -1.21458,4.66775 -1.2702,9.73363 -2.38867,14.47656 -0.31853,1.35076 0.0441,2.35406 -0.26562,3.72461 -0.63414,2.80832 -0.52674,6.45097 -1.19141,9.29492 -0.0447,1.15066 -0.087,2.30383 -0.13086,3.45508 -0.41811,1.86789 -0.0861,4.1822 -0.53711,6.23828 -0.61381,2.79986 -0.96035,8.05232 -0.79297,10.89063 -0.13277,0.0439 -0.26561,0.0881 -0.39843,0.13281 -0.50756,0.36509 -0.97166,0.0206 -1.06446,-0.5293 0.27819,-0.43802 0.10039,-1.47141 0,-2.12305 -0.25142,-1.62488 0.003,-3.7317 -0.39648,-5.44531 -0.39337,-1.69154 -0.0924,-3.80122 -0.5293,-5.71094 -1.32248,-5.78 -0.88219,-12.69242 -2.25781,-18.33398 -0.0445,-0.75279 -0.0868,-1.50303 -0.13086,-2.25586 -0.28199,-1.18742 -0.49732,-2.73025 -0.80078,-3.85156 v -1.33008 c -1.95494,-7.66371 -2.79982,-15.32641 -5.96875,-21.64844 -0.61718,-1.2315 -0.75982,-2.43579 -1.46289,-3.58594 -3.29382,-5.39115 -7.15518,-9.79472 -12.61133,-13.01562 -5.53418,-3.26671 -12.51807,-4.18551 -19.63867,-5.98047 h -1.46289 c -2.53764,-0.59399 -5.8901,-0.58159 -8.4961,-1.19141 -1.41576,-0.0445 -2.83228,-0.0887 -4.24804,-0.13281 -4.56432,-1.02178 -10.78304,-0.0811 -14.99414,-1.06445 -4.02572,-0.0439 -8.05631,-0.0881 -12.08204,-0.13281 -0.0865,-0.24868 -0.12681,-0.52131 -0.13281,-0.93164 0.2125,-0.0742 0.32321,-0.10512 0.66797,-0.13282 0.26787,0.17072 1.24088,0.23907 1.7207,0.13282 1.82211,-0.40232 4.17624,0.19162 6.24024,-0.26563 1.49205,-0.32983 3.29262,0.0958 4.91016,-0.26367 1.18858,-0.26408 2.96169,-0.32599 4.24804,-0.39649 h 2.52149 c 3.41194,-0.84664 7.76531,-0.44673 11.14843,-1.19726 h 1.99219 c 1.73168,-0.4126 3.78397,-0.32244 5.70899,-0.79492 2.09508,-0.51375 4.4286,-0.61797 6.63671,-1.19727 3.40799,-0.89467 6.95715,-1.79121 9.95313,-3.05664 0.84947,-0.35887 1.57824,-0.36482 2.38867,-0.79492 0.44876,-0.23906 1.15349,-0.84171 1.59375,-1.06445 0.74322,-0.37754 1.31166,-0.36881 1.99219,-0.79493 8.38205,-5.24253 12.98687,-13.18379 16.32422,-23.50781 1.5791,-4.88365 2.03229,-10.25295 3.32031,-15.41015 0.0887,-0.92973 0.17693,-1.86133 0.26562,-2.79102 1.23379,-4.98765 0.87514,-10.84839 2.12305,-15.93945 0.0439,-1.01845 0.0887,-2.03292 0.13281,-3.05079 0.80365,-3.56568 0.38602,-7.7499 1.19141,-11.42578 0.43458,-1.98206 -0.0754,-4.04116 0.5293,-5.84179 z m -449.37305,2.82813 1.41993,0.002 c 0.12137,0.35095 0.18357,0.64142 0.20507,1.22071 -0.36797,0.68894 0.16778,2.52503 0.20508,3.6582 0.27129,3.25596 0.53915,6.51549 0.81055,9.77148 0.71664,3.1497 0.54502,6.93742 1.22266,9.97071 v 3.2539 c 1.80291,7.53265 1.43495,16.3669 3.24804,23.81641 0.13496,1.42424 0.27461,2.8467 0.41016,4.27148 1.33269,5.19451 1.36213,10.81638 2.8457,16.07813 0.97436,3.45606 1.93909,7.54397 3.05078,10.78125 0.96305,2.8061 0.98623,5.41026 2.23242,7.94336 0.0661,0.13336 0.54709,0.43144 0.61329,0.60742 0.068,0.54258 0.13141,1.08828 0.19921,1.63086 2.62467,5.57035 5.41162,10.83684 8.74219,15.66797 0.98792,1.43326 2.63399,2.63875 3.86328,3.86914 7.56145,7.56541 14.92797,10.42492 26.02344,14.44726 0.60982,0.0678 1.2183,0.13533 1.82813,0.20313 5.45449,1.65428 11.91365,2.24154 17.88867,3.66406 h 2.23828 c 4.66101,1.15693 10.5022,0.72857 15.45312,1.83008 h 3.05079 c 3.43399,0.80632 7.83572,-0.008 11.58789,0.8125 2.45115,0.5357 5.39799,-0.18748 8.1289,0.4082 1.97586,0.43131 4.88871,-0.28097 7.11719,0.20508 2.02898,0.44238 4.74051,0.33516 6.70898,0.20508 0.0681,0.20346 0.13202,0.4041 0.19922,0.60742 0.24584,0.42955 0.0982,0.45413 0,1.01758 h -9.7539 c -1.17158,0.70477 -4.47723,0.20312 -6.10157,0.20312 -2.65178,0 -5.66228,-0.0245 -7.72461,0.41016 -1.77519,0.37471 -3.74824,-0.47306 -5.89648,0 -5.75175,1.26705 -12.74321,0.20892 -18.29883,1.42578 h -3.45312 c -2.98074,0.70646 -6.49192,0.4462 -9.75977,1.21484 -6.21123,1.46095 -12.49142,2.04588 -18.29687,3.86914 -12.18514,3.82734 -22.31516,10.46448 -28.66602,20.1504 -1.34,2.04424 -1.99564,4.13863 -3.24805,6.30664 -0.85402,1.47904 -2.05421,3.46665 -2.64257,5.08984 -2.2799,6.2881 -3.92768,12.93221 -5.69727,19.73633 -1.85998,7.15171 -1.94459,14.91719 -3.6582,22.18359 -0.48815,2.06967 0.0699,3.59959 -0.4043,5.69922 -0.97207,4.30265 -0.80966,9.89113 -1.82812,14.24805 -0.0678,1.7639 -0.13728,3.52572 -0.20508,5.28906 -0.64041,2.86203 -0.12243,6.4167 -0.8125,9.56641 -0.93991,4.2908 -1.47733,12.3371 -1.22071,16.68554 -0.20291,0.0678 -0.40408,0.13728 -0.60742,0.20508 -0.77655,0.55955 -1.48887,0.0307 -1.63086,-0.8125 0.42557,-0.67086 0.1543,-2.25774 0,-3.25586 -0.385,-2.49016 0.003,-5.71933 -0.60742,-8.3457 -0.60311,-2.59133 -0.14334,-5.82213 -0.8125,-8.74805 -2.02558,-8.85679 -1.35393,-19.44416 -3.46094,-28.08789 -0.0677,-1.15353 -0.12946,-2.30603 -0.19726,-3.45898 -0.4318,-1.81987 -0.75752,-4.18422 -1.22266,-5.90235 v -2.03515 c -2.99427,-11.74259 -4.29725,-23.48346 -9.15039,-33.16992 -0.94553,-1.88658 -1.15578,-3.73081 -2.23242,-5.49415 -5.04535,-8.26002 -10.95779,-15.01275 -19.31445,-19.94726 -8.47645,-5.00576 -19.18454,-6.40612 -30.0918,-9.15625 h -2.23242 c -3.88728,-0.90992 -9.02244,-0.89528 -13.01367,-1.83008 -2.16801,-0.0678 -4.3373,-0.13728 -6.50586,-0.20508 -6.99118,-1.56501 -16.52236,-0.12469 -22.97266,-1.63086 -6.16604,-0.0679 -12.33005,-0.13532 -18.49609,-0.20312 -0.13276,-0.38148 -0.19413,-0.79729 -0.20313,-1.42578 0.32609,-0.11321 0.48779,-0.15862 1.01563,-0.19922 0.41032,0.26181 1.90779,0.36191 2.64257,0.19922 2.7908,-0.61602 6.39368,0.29652 9.55469,-0.4043 2.28498,-0.50644 5.04323,0.14229 7.52149,-0.4082 1.81986,-0.40406 4.5337,-0.50196 6.5039,-0.60938 h 3.86328 c 5.22615,-1.29764 11.89467,-0.68441 17.07618,-1.83398 h 3.05078 c 2.65236,-0.63244 5.79367,-0.49731 8.74218,-1.22071 3.20907,-0.78787 6.78068,-0.94218 10.16211,-1.83007 5.22049,-1.37112 10.65827,-2.74254 15.24805,-4.68164 1.30101,-0.54992 2.42295,-0.56116 3.66406,-1.22071 0.68724,-0.36564 1.76186,-1.28306 2.43555,-1.625 1.13826,-0.57818 2.00746,-0.56789 3.05078,-1.2207 12.8379,-8.03279 19.89638,-20.20674 25.00781,-36.02539 2.41838,-7.48343 3.1051,-15.70126 5.07813,-23.60352 0.13558,-1.42424 0.27265,-2.8531 0.4082,-4.27734 1.88937,-7.64285 1.34444,-16.6169 3.25586,-24.41797 0.0677,-1.55988 0.13142,-3.12121 0.19922,-4.68164 1.23039,-5.46297 0.60019,-11.87059 1.83398,-17.50195 0.66541,-3.03782 -0.11437,-6.19647 0.8125,-8.95508 z m 545.92188,53.31836 c 7.0799,0.0808 14.17485,0.49156 21.25195,1.28711 h 0.006 c 2.83492,0.32182 5.6842,0.70159 8.53711,1.16601 l -2.27344,13.94922 c -2.58882,-0.42143 -5.20273,-0.77807 -7.8457,-1.07812 -13.13502,-1.47653 -26.48773,-1.5242 -39.81445,-0.55274 l -1.0293,-14.09179 c 7.02193,-0.51196 14.08801,-0.76039 21.16797,-0.67969 z m 72.1543,16.03515 c 9.41658,4.97946 18.18803,11.45356 25.50586,19.49415 v 0.006 c 4.81324,5.27935 8.94889,11.1758 12.26367,17.51563 l -12.52149,6.54687 c -2.74649,-5.25271 -6.18734,-10.16206 -10.1875,-14.54882 v -0.006 c -6.07517,-6.67648 -13.51439,-12.21057 -21.66015,-16.51758 z m -224.23438,21.9668 6.23438,12.67774 -0.57813,0.28906 -2.02148,1.00586 c -0.009,0.006 -0.0134,0.008 -0.0234,0.0117 l -0.0117,0.006 c -13.70263,6.93742 -27.235,14.21601 -40.60352,21.79882 l -6.97265,-12.29297 c 13.56504,-7.69429 27.31064,-15.08227 41.23437,-22.13085 l 0.0176,-0.0117 2.11133,-1.05274 z m -166.11719,36.97461 h 0.90235 c 0.0774,0.22211 0.11135,0.40215 0.12695,0.76953 -0.23336,0.43631 0.10821,1.60645 0.13281,2.32422 0.17125,2.06344 0.33984,4.12796 0.51172,6.19141 0.45382,1.99561 0.34588,4.39426 0.77539,6.3164 v 2.06446 c 1.14164,4.77344 0.91073,10.36894 2.0586,15.08984 0.0859,0.90257 0.17191,1.8064 0.25781,2.70898 0.84387,3.29156 0.86537,6.85158 1.80469,10.18555 0.61773,2.19004 1.22742,4.78434 1.93164,6.83594 0.6098,1.77803 0.62451,3.42419 1.41406,5.0293 0.0418,0.0847 0.34356,0.27577 0.38476,0.38671 0.0432,0.34418 0.09,0.69094 0.13282,1.03516 1.66274,3.53004 3.42536,6.86619 5.53515,9.92774 0.62566,0.90824 1.66455,1.66789 2.44336,2.44726 4.78871,4.79434 9.45311,6.60928 16.48047,9.1582 0.38658,0.043 0.77549,0.0842 1.16211,0.12696 3.45488,1.0484 7.54569,1.42081 11.33008,2.32226 h 1.41992 c 2.95187,0.73303 6.6476,0.46412 9.7832,1.16211 h 1.93165 c 2.17478,0.51146 4.96329,-0.002 7.33984,0.51758 1.55255,0.33989 3.42039,-0.11975 5.15039,0.25781 1.25129,0.27363 3.09656,-0.1805 4.50781,0.12696 1.28465,0.28106 3.00125,0.20895 4.24805,0.12695 l 0.12695,0.39062 c 0.15528,0.27242 0.0623,0.28538 0,0.64258 h -6.17969 c -0.7415,0.44649 -2.83466,0.12695 -3.86328,0.12695 -1.6797,10e-6 -3.58643,-0.016 -4.89257,0.25977 -1.12469,0.23691 -2.37538,-0.30006 -3.73633,0 -3.64309,0.80236 -8.06916,0.13142 -11.58789,0.90234 h -2.18555 c -1.88768,0.4476 -4.11586,0.28822 -6.18555,0.77539 -3.93416,0.92575 -7.90557,1.29342 -11.58203,2.44922 -7.71799,2.42515 -14.13586,6.63037 -18.1582,12.76758 -0.84888,1.29596 -1.26565,2.62218 -2.0586,3.9961 -0.54084,0.93707 -1.29941,2.196 -1.67187,3.2246 -1.44403,3.98504 -2.49061,8.19806 -3.61133,12.50977 -1.1784,4.53213 -1.23129,9.45021 -2.31641,14.05469 -0.30937,1.31175 0.0429,2.2809 -0.25781,3.61133 -0.61547,2.72695 -0.51136,6.27035 -1.15625,9.03125 -0.0431,1.11733 -0.0896,2.23365 -0.13281,3.35156 -0.40517,1.81306 -0.0749,4.06242 -0.51172,6.05859 -0.59575,2.71904 -0.93809,7.82233 -0.77539,10.57813 l -0.38476,0.12695 c -0.49168,0.35493 -0.9393,0.0229 -1.0293,-0.51172 0.26957,-0.425 0.0977,-1.43201 0,-2.06445 -0.24426,-1.57851 0.002,-3.62518 -0.38477,-5.28906 -0.38152,-1.64182 -0.0937,-3.69254 -0.51758,-5.54688 -1.28293,-5.61217 -0.85508,-12.31532 -2.18945,-17.79297 l -0.12695,-2.19531 c -0.27353,-1.15352 -0.4744,-2.64723 -0.76953,-3.73633 v -1.29492 c -1.89672,-7.44109 -2.72094,-14.87922 -5.79492,-21.01758 -0.59853,-1.19533 -0.73778,-2.36564 -1.41993,-3.48242 -1.82564,-2.99064 -3.87576,-5.62629 -6.24609,-7.95508 -1.16768,0.92889 -2.37822,1.79973 -3.54297,2.73242 l -7.80469,-9.74804 c -4.23136,-1.42781 -8.91609,-2.26682 -13.69531,-3.47266 h -1.41406 c -2.46246,-0.57647 -5.71416,-0.56788 -8.24219,-1.16016 -1.37336,-0.043 -2.74963,-0.0842 -4.12305,-0.12695 -4.4281,-0.99174 -10.46376,-0.0806 -14.54882,-1.03516 -3.90535,-0.0428 -7.80948,-0.0842 -11.71485,-0.12695 -0.0844,-0.24189 -0.12681,-0.50445 -0.13281,-0.90234 0.20627,-0.0717 0.31052,-0.10626 0.64453,-0.13086 0.25998,0.16562 1.21199,0.23379 1.67774,0.13086 1.76785,-0.39062 4.04642,0.18642 6.04882,-0.25781 1.44684,-0.32027 3.19614,0.089 4.76563,-0.25977 1.15237,-0.256 2.8732,-0.31697 4.12109,-0.38477 h 2.44922 c 3.31021,-0.82233 7.53054,-0.43162 10.8125,-1.16015 h 1.93164 c 1.67969,-0.4007 3.66783,-0.31901 5.53516,-0.77735 2.03238,-0.49905 4.29605,-0.59724 6.4375,-1.16015 3.30627,-0.86869 6.75154,-1.73809 9.6582,-2.9668 0.82402,-0.34814 1.53024,-0.35129 2.31641,-0.76953 0.43573,-0.2317 1.11822,-0.81857 1.54492,-1.03516 0.72117,-0.36623 1.27095,-0.35779 1.93164,-0.77148 8.13171,-5.08996 12.60059,-12.80421 15.83789,-22.82813 1.5316,-4.7418 1.96858,-9.94961 3.21875,-14.95703 0.0859,-0.90258 0.17191,-1.80582 0.25781,-2.70898 1.19703,-4.8424 0.85383,-10.5316 2.06446,-15.47461 0.043,-0.98906 0.0843,-1.97775 0.12695,-2.9668 0.77939,-3.4617 0.37851,-7.52135 1.16015,-11.08984 0.42146,-1.92498 -0.0749,-3.92575 0.51172,-5.67383 z m 85.46485,8.35156 7.47461,11.99219 c -13.89582,8.66039 -27.58706,17.64754 -41.08399,26.93164 l -8.00976,-11.64258 c 13.66561,-9.40016 27.53555,-18.50385 41.61914,-27.28125 z m 353.33008,13.65235 c 0.33793,13.41474 -1.41243,26.65546 -4.27735,39.42968 v 0.006 c -0.86543,3.84156 -1.83688,7.65825 -2.90625,11.44532 l -13.59961,-3.83985 c 1.0008,-3.54437 1.91178,-7.11283 2.72071,-10.70312 2.67728,-11.93764 4.2424,-24.03597 3.9414,-35.98242 z m -701.27344,19.80859 8.45312,11.32422 c -12.66653,9.46097 -24.38915,20.0959 -34.42187,32.07617 l -0.0137,0.0117 -0.37891,0.46289 -10.88477,-9.01367 0.42188,-0.50586 0.0117,-0.0176 c 10.86866,-12.98059 23.42351,-24.33731 36.8125,-34.33789 z m 357.28906,7.35938 h 0.66797 c 0.057,0.16448 0.0857,0.2986 0.0957,0.57031 -0.17316,0.32331 0.0781,1.18887 0.0957,1.7207 0.12705,1.52825 0.25429,3.0577 0.38085,4.58594 0.33564,1.4785 0.25325,3.25797 0.57032,4.68164 v 1.52734 c 0.84494,3.53573 0.674,7.67656 1.52344,11.17383 0.0633,0.66861 0.1279,1.34116 0.1914,2.00977 0.62453,2.43871 0.63547,5.07509 1.33008,7.54492 0.45668,1.62259 0.91109,3.54662 1.43164,5.06641 0.45158,1.31684 0.46303,2.53548 1.04688,3.7246 0.0308,0.0629 0.25806,0.20061 0.28906,0.28321 0.0316,0.2549 0.0582,0.50951 0.0898,0.76367 1.2298,2.61506 2.53723,5.09132 4.09766,7.35937 0.46293,0.67255 1.23462,1.23878 1.81054,1.81641 3.5425,3.55098 6.99295,4.89301 12.19141,6.78125 0.28541,0.0315 0.57545,0.0639 0.86133,0.0957 2.55572,0.77654 5.58154,1.05268 8.38086,1.72071 h 1.04687 c 2.18385,0.54258 4.91883,0.34418 7.23828,0.86132 h 1.42579 c 1.60904,0.37865 3.67589,-0.006 5.43359,0.37891 1.149,0.25138 2.52847,-0.0864 3.80859,0.19336 0.92519,0.20216 2.28817,-0.13195 3.33203,0.0957 0.95063,0.20801 2.22022,0.15661 3.14258,0.0957 l 0.0957,0.2832 c 0.11523,0.20195 0.0465,0.21584 0,0.48047 h -4.57422 c -0.54936,0.33049 -2.09668,0.0898 -2.85742,0.0898 -1.24225,-5.9e-4 -2.64879,-0.0106 -3.61524,0.19336 -0.83193,0.17519 -1.75511,-0.22213 -2.76172,0 -2.69474,0.59465 -5.97161,0.0966 -8.57422,0.66797 h -1.61914 c -1.39654,0.3318 -3.04118,0.21756 -4.57226,0.57813 -2.91005,0.68613 -5.85461,0.95431 -8.57422,1.81054 -5.70936,1.79666 -10.45657,4.91215 -13.43164,9.45899 -0.62791,0.95963 -0.93483,1.94308 -1.52149,2.96093 -0.40011,0.69404 -0.96513,1.62682 -1.24023,2.38868 -1.06818,2.95189 -1.83494,6.07183 -2.66406,9.26562 -0.87148,3.35713 -0.91175,7.0052 -1.71485,10.41602 -0.22828,0.97152 0.0288,1.69011 -0.19336,2.67578 -0.45502,2.01992 -0.37593,4.64018 -0.85351,6.68555 l -0.0977,2.48437 c -0.30018,1.34339 -0.0556,3.01119 -0.3789,4.49023 -0.44034,2.01427 -0.69083,5.79258 -0.57032,7.83399 -0.0955,0.0315 -0.19356,0.0633 -0.28906,0.0957 -0.36399,0.26277 -0.69101,0.0114 -0.75781,-0.38476 0.19963,-0.3148 0.0725,-1.06078 0,-1.5293 -0.18027,-1.16879 -0.003,-2.68338 -0.28907,-3.91602 -0.28193,-1.21681 -0.0652,-2.73015 -0.3789,-4.10351 -0.94895,-4.1574 -0.6318,-9.13154 -1.61914,-13.18946 -0.0314,-0.54086 -0.0639,-1.07771 -0.0957,-1.61914 -0.20234,-0.85455 -0.35416,-1.96692 -0.57227,-2.77343 v -0.95703 c -1.40277,-5.51212 -2.00949,-11.02545 -4.2832,-15.57227 -0.44309,-0.8856 -0.54276,-1.7468 -1.04688,-2.57422 -2.36354,-3.87767 -5.13526,-7.04717 -9.05078,-9.36328 -3.97149,-2.34994 -8.98737,-3.0113 -14.09766,-4.30273 h -1.04687 c -1.82101,-0.42672 -4.22552,-0.42022 -6.0957,-0.85938 -1.0156,-0.0315 -2.0326,-0.0639 -3.04883,-0.0957 -3.27516,-0.73324 -7.74363,-0.0586 -10.76563,-0.76563 -2.88914,-0.032 -5.7749,-0.0582 -8.66406,-0.0898 -0.0613,-0.17915 -0.0917,-0.37869 -0.0957,-0.67383 0.15262,-0.0529 0.22692,-0.0722 0.47461,-0.0898 0.19217,0.1226 0.89599,0.16624 1.24023,0.0898 1.30779,-0.28926 2.9958,0.14342 4.47656,-0.18555 1.07045,-0.23748 2.36451,0.0648 3.52539,-0.19336 0.85226,-0.18985 2.12202,-0.23826 3.04493,-0.28906 h 1.81054 c 2.44834,-0.60934 5.57651,-0.31964 8.00391,-0.85937 h 1.42578 c 1.24283,-0.29744 2.71637,-0.23319 4.09766,-0.57227 1.50336,-0.36963 3.17307,-0.44232 4.75781,-0.85937 2.44549,-0.6432 4.99209,-1.28678 7.14258,-2.19727 0.60982,-0.25772 1.13326,-0.2606 1.71484,-0.57031 0.32215,-0.17125 0.82861,-0.60508 1.14453,-0.76563 0.53355,-0.27125 0.94275,-0.2641 1.43164,-0.57031 6.01511,-3.77084 9.32022,-9.48883 11.71485,-16.91406 1.13317,-3.51314 1.45874,-7.37475 2.38281,-11.08399 0.0641,-0.66861 0.12185,-1.33529 0.18555,-2.0039 0.88506,-3.58771 0.63406,-7.79918 1.52929,-11.46094 l 0.0899,-2.19727 c 0.57699,-2.5642 0.28372,-5.57486 0.86132,-8.21875 0.31188,-1.42592 -0.0551,-2.90439 0.37891,-4.19921 z m 308.94727,58.67578 12.90625,5.74023 c -6.82613,15.34536 -14.63083,30.18229 -23.00782,44.60547 l -12.21484,-7.09375 c 8.17793,-14.08052 15.74174,-28.47179 22.31641,-43.25195 z m -726.88086,6.36132 12.96093,5.61915 c -4.84834,11.17529 -7.96612,23.0831 -8.86328,35.10351 v 0.006 c -0.24961,3.32623 -0.33428,6.65984 -0.24218,9.98242 l -14.12696,0.39063 c -0.10595,-3.8168 -0.007,-7.63588 0.27735,-11.43164 1.02618,-13.74903 4.56901,-27.16514 9.99414,-39.66993 z m 620.52539,1.64844 H 758.25 c 0.13403,0.38661 0.19806,0.70959 0.22266,1.34766 -0.40684,0.75787 0.18145,2.78336 0.22265,4.03125 0.29897,3.58434 0.60353,7.16762 0.90235,10.75195 0.79129,3.46791 0.59353,7.64281 1.34179,10.98242 v 3.58594 c 1.99055,8.29334 1.59051,18.01251 3.5918,26.21484 l 0.45117,4.70508 c 1.47115,5.71953 1.50277,11.91069 3.14063,17.70313 1.07554,3.80531 2.14411,8.30656 3.37109,11.87109 1.0631,3.08926 1.09117,5.95301 2.4668,8.74219 0.0729,0.14691 0.60073,0.47481 0.67383,0.66797 0.0749,0.59742 0.14745,1.19558 0.22265,1.79297 2.89764,6.13271 5.9734,11.9384 9.65039,17.25781 1.09078,1.57738 2.90809,2.89975 4.26563,4.25391 8.34816,8.32955 16.48231,11.48007 28.73242,15.9082 0.67313,0.0749 1.34835,0.14806 2.02148,0.22265 6.02248,1.82102 13.15135,2.47102 19.74805,4.03711 h 2.47266 c 5.14591,1.27336 11.59283,0.80275 17.05859,2.01563 h 3.36328 c 3.79115,0.88652 8.64833,-0.007 12.79102,0.89648 2.70605,0.58998 5.96917,-0.21085 8.98437,0.44532 2.18097,0.47412 5.39137,-0.31257 7.85157,0.22265 2.23977,0.48705 5.23261,0.3709 7.40624,0.22852 0.0749,0.22383 0.14746,0.44369 0.22266,0.66797 0.2708,0.47311 0.1084,0.505 0,1.125 h -10.76953 c -1.29367,0.77609 -4.93914,0.22265 -6.73242,0.22265 -2.92762,-5.5e-4 -6.25662,-0.0328 -8.53321,0.44532 -1.96054,0.41256 -4.13771,-0.52054 -6.50976,0 -6.35027,1.39541 -14.06539,0.23029 -20.19922,1.57031 h -3.81445 c -3.29043,0.7777 -7.16345,0.49569 -10.77149,1.3418 -6.85781,1.6085 -13.79598,2.25421 -20.20508,4.26171 -13.45335,4.21392 -24.63691,11.51937 -31.64843,22.1836 -1.47963,2.25053 -2.20352,4.55605 -3.58594,6.94336 -0.9427,1.62767 -2.26805,3.81447 -2.91797,5.60156 -2.51672,6.92336 -4.33526,14.24296 -6.28906,21.73437 -2.05383,7.87398 -2.14549,16.42186 -4.03711,24.42188 -0.53919,2.27934 0.0728,3.96576 -0.45117,6.27734 -1.07269,4.73727 -0.89679,10.88834 -2.02149,15.68555 -0.0749,1.94137 -0.14805,3.88285 -0.22265,5.82422 -0.70709,3.15139 -0.13409,7.06082 -0.89649,10.5293 -1.03764,4.72373 -1.63138,13.58349 -1.34765,18.37109 -0.22436,0.0745 -0.44955,0.1539 -0.67383,0.22852 -0.85734,0.6166 -1.63594,0.0321 -1.79297,-0.89649 0.4702,-0.73865 0.17012,-2.48668 0,-3.58594 -0.42498,-2.74164 -7.1e-4,-6.29859 -0.67383,-9.18945 -0.6658,-2.85356 -0.15778,-6.41133 -0.89648,-9.63281 -2.23582,-9.75094 -1.49405,-21.40493 -3.82032,-30.92188 -0.0751,-1.26994 -0.14805,-2.53921 -0.22265,-3.80859 -0.47697,-2.00412 -0.83389,-4.6064 -1.34766,-6.49805 v -2.23828 c -3.30623,-12.92832 -4.73924,-25.85862 -10.09765,-36.52344 -1.04331,-2.07701 -1.28413,-4.11138 -2.47266,-6.05273 -5.57035,-9.0942 -12.09779,-16.52209 -21.32422,-21.95508 -9.35871,-5.511 -21.17326,-7.05776 -33.21484,-10.08594 h -2.47266 c -4.29193,-1.00151 -9.95469,-0.98643 -14.36133,-2.01562 -2.39406,-0.0745 -4.79205,-0.14806 -7.18554,-0.22266 -7.71914,-1.72318 -18.24014,-0.1353 -25.36133,-1.79297 -6.80806,-0.0751 -13.62024,-0.14805 -20.42774,-0.22265 -0.14633,-0.41994 -0.21265,-0.87856 -0.22265,-1.57032 0.36,-0.12513 0.54176,-0.17795 1.125,-0.22265 0.45272,0.28773 2.10107,0.40136 2.91211,0.22265 3.08185,-0.67892 7.06416,0.3203 10.55468,-0.45117 2.52235,-0.55736 5.56674,0.16113 8.30274,-0.44531 2.0092,-0.44469 5.01018,-0.55527 7.18555,-0.67383 h 4.25976 c 5.76987,-1.42875 13.13671,-0.75019 18.85742,-2.01562 h 3.36328 c 2.92817,-0.69684 6.39555,-0.54488 9.65039,-1.3418 3.54305,-0.86695 7.49556,-1.03786 11.22852,-2.01563 5.76362,-1.50957 11.76078,-3.02102 16.82813,-5.15624 1.43664,-0.60475 2.67492,-0.61555 4.04492,-1.3418 0.75957,-0.4024 1.94505,-1.416 2.68945,-1.79297 1.25693,-0.63584 2.21732,-0.62875 3.36914,-1.34766 14.174,-8.84382 21.96221,-22.24181 27.60547,-39.6582 2.66988,-8.23851 3.43646,-17.29385 5.61523,-25.99414 0.14965,-1.56836 0.30216,-3.13673 0.45118,-4.70508 2.08662,-8.41373 1.47609,-18.29445 3.58593,-26.88281 0.0751,-1.71755 0.15332,-3.43871 0.22852,-5.15625 1.35868,-6.01511 0.65355,-13.06766 2.01562,-19.26758 0.73459,-3.34414 -0.12062,-6.8241 0.90235,-9.86133 z m -360.4668,2.02149 9.13477,10.77734 c -12.51729,10.61394 -24.87223,21.4193 -37.08789,32.39453 l -9.44141,-10.50586 c 12.30826,-11.05844 24.76631,-21.95798 37.39453,-32.66601 z m -85.25977,13.23633 c 0.0762,0.21926 0.11136,0.40333 0.12696,0.76562 -0.23,0.43064 0.10821,1.58227 0.13281,2.29102 0.16898,2.03572 0.33516,4.07166 0.50391,6.10742 0.44764,1.96907 0.3423,4.33763 0.76562,6.23437 v 2.03907 c 1.1258,4.71017 0.89476,10.22853 2.02735,14.88671 0.0847,0.89069 0.16775,1.78119 0.25195,2.67188 0.8325,3.24808 0.85492,6.76483 1.78125,10.05469 0.60869,2.16064 1.21359,4.71969 1.9082,6.74414 0.48349,1.40914 0.69289,2.69578 1.11914,3.98242 2.65381,-2.51262 5.25135,-5.08043 7.91797,-7.58008 l 9.66211,10.30664 c -3.57358,3.34983 -7.06158,6.79385 -10.61328,10.16797 0.56276,0.57844 1.15288,1.15799 1.69141,1.69727 4.72369,4.73051 9.32066,6.52209 16.25195,9.0371 l 1.14258,0.12696 c 3.40742,1.03428 7.44726,1.40338 11.17968,2.29297 h 1.39649 c 2.91178,0.72286 6.55719,0.45362 9.65039,1.14257 h 1.9082 c 2.14539,0.50543 4.89449,-0.001 7.23828,0.51172 1.5316,0.33522 3.37188,-0.12046 5.07813,0.25196 1.23379,0.26953 3.0533,-0.17712 4.44531,0.12695 1.26713,0.27695 2.95963,0.20825 4.18945,0.12695 0.042,0.12725 0.0824,0.25762 0.125,0.38477 0.15313,0.26846 0.0615,0.2782 0,0.63086 h -6.09375 c -0.73192,0.44029 -2.79412,0.12695 -3.80859,0.12695 -1.65653,0 -3.53757,-0.0119 -4.82617,0.25977 -1.10886,0.23415 -2.34186,-0.29542 -3.68359,0 -3.59337,0.79235 -7.96091,0.12988 -11.43165,0.89062 h -2.16015 c -1.86166,0.44195 -4.05431,0.28328 -6.0957,0.76367 -3.87992,0.91332 -7.79962,1.27215 -11.42579,2.41211 -7.6123,2.39293 -13.9393,6.54321 -17.90625,12.59961 -0.83703,1.27783 -1.25095,2.59141 -2.0332,3.94727 -0.53352,0.92461 -1.28106,2.16267 -1.64844,3.17773 -1.42424,3.9319 -2.45117,8.09166 -3.55664,12.34571 -1.16199,4.47222 -1.21666,9.32571 -2.28711,13.86914 -0.30442,1.29424 0.0441,2.24961 -0.25195,3.5625 -0.60699,2.69022 -0.50676,6.18015 -1.14258,8.90429 -0.0422,1.10263 -0.0843,2.20792 -0.12695,3.31055 -0.40029,1.78934 -0.0805,4.01082 -0.51172,5.98047 -0.58741,2.68285 -0.92422,7.71513 -0.76367,10.43359 -0.12709,0.0424 -0.25234,0.0902 -0.37891,0.13281 -0.48544,0.34984 -0.92888,0.0156 -1.01758,-0.51171 0.26617,-0.41937 0.0967,-1.40924 0,-2.03321 -0.2402,-1.55705 0.003,-3.57437 -0.3789,-5.21679 -0.37633,-1.61977 -0.0877,-3.6471 -0.50586,-5.47657 -1.26487,-5.53758 -0.84389,-12.15189 -2.16016,-17.55664 -0.0426,-0.7206 -0.0824,-1.44486 -0.125,-2.16601 -0.26959,-1.13826 -0.47448,-2.61506 -0.76562,-3.68946 v -1.27539 c -1.87013,-7.34217 -2.68268,-14.68382 -5.71485,-20.74023 -0.59002,-1.17951 -0.72392,-2.33346 -1.39648,-3.43555 -3.15197,-5.16513 -6.84453,-9.38095 -12.06445,-12.46679 -5.29566,-3.12998 -11.98374,-4.00869 -18.79688,-5.72852 h -1.39648 c -2.42857,-0.56857 -5.63538,-0.55766 -8.12891,-1.14258 -1.35416,-0.0422 -2.70635,-0.0843 -4.06055,-0.12695 -4.36765,-0.97899 -10.32244,-0.0819 -14.35156,-1.02344 -3.85225,-0.0422 -7.70695,-0.0843 -11.55859,-0.12695 -0.0832,-0.23907 -0.119,-0.49725 -0.125,-0.89063 0.20348,-0.0707 0.30138,-0.1004 0.63086,-0.125 0.2566,0.16387 1.1948,0.22656 1.65429,0.125 1.74354,-0.38543 3.99402,0.18606 5.96875,-0.25195 1.42707,-0.31652 3.15119,0.0922 4.69922,-0.25195 1.13656,-0.25267 2.83213,-0.31697 4.0625,-0.38477 h 2.41211 c 3.26448,-0.81102 7.43123,-0.42558 10.66797,-1.14453 h 1.9082 c 1.65652,-0.39558 3.61514,-0.31097 5.45703,-0.76367 2.00467,-0.49226 4.24147,-0.58756 6.35352,-1.14258 3.26106,-0.85734 6.65827,-1.71877 9.52539,-2.93164 0.81272,-0.34363 1.51225,-0.35166 2.28711,-0.76367 0.42953,-0.22891 1.0999,-0.80153 1.52148,-1.01563 0.711,-0.36115 1.25071,-0.35698 1.90235,-0.76562 8.01978,-5.0221 12.43178,-12.6304 15.625,-22.52149 1.51072,-4.67907 1.93925,-9.81904 3.17187,-14.75976 0.0841,-0.89072 0.16716,-1.78173 0.25196,-2.67188 1.18061,-4.77854 0.83956,-10.39209 2.0332,-15.26953 0.0422,-0.97551 0.0844,-1.95027 0.12695,-2.92578 0.76865,-3.41592 0.37224,-7.4218 1.14258,-10.94336 0.41596,-1.899 -0.067,-3.87665 0.51172,-5.60156 z m 507.49024,55.50195 11.73437,7.86914 c -9.26361,13.81742 -18.95902,27.32114 -28.96093,40.56641 l -11.26953,-8.51368 c 9.86478,-13.06368 19.40049,-26.35514 28.49609,-39.92187 z M 149.2832,489.15234 c 5.46789,11.10603 13.35882,21.05199 23.00196,28.70704 h 0.006 c 2.22044,1.76363 4.52926,3.4011 6.91406,4.9082 l -7.55078,11.95117 c -2.82576,-1.7858 -5.54824,-3.72509 -8.1543,-5.79492 -11.36127,-9.01921 -20.5205,-20.59274 -26.88867,-33.52735 z m 326.38477,26.04688 h 0.90234 c 0.0768,0.22211 0.11136,0.40803 0.12696,0.77539 -0.23338,0.43633 0.10821,1.59866 0.13281,2.31641 0.17123,2.06344 0.33788,4.12795 0.50976,6.1914 0.45384,1.99563 0.34784,4.40207 0.77735,6.32422 v 2.05859 c 1.14168,4.77344 0.90822,10.36895 2.05664,15.08985 0.0859,0.90257 0.17386,1.80445 0.25976,2.70703 0.84381,3.29156 0.86531,6.85353 1.80469,10.1875 0.61771,2.19004 1.22742,4.78436 1.93164,6.83594 0.60982,1.77803 0.62451,3.4242 1.41406,5.02929 0.0418,0.0847 0.34357,0.27383 0.38477,0.38477 0.0432,0.34418 0.09,0.69094 0.13281,1.03516 1.66219,3.53004 3.42535,6.86619 5.53516,9.92773 0.62562,0.90824 1.66514,1.67569 2.44336,2.45508 4.78931,4.79435 9.45313,6.60342 16.48047,9.15234 0.3866,0.0431 0.77551,0.09 1.16211,0.13281 3.4549,1.04839 7.54513,1.42081 11.33007,2.32227 h 1.41993 c 2.95189,0.73248 6.6482,0.45631 9.7832,1.1543 h 1.93164 c 2.17478,0.51146 4.96327,-0.002 7.33984,0.51758 1.55252,0.33987 3.42039,-0.11778 5.15039,0.25976 1.25129,0.27304 3.09659,-0.18049 4.50782,0.12695 1.28465,0.28086 3.00124,0.21286 4.24804,0.13086 l 0.125,0.38477 c 0.15567,0.27245 0.0623,0.28733 0,0.64453 h -6.17773 c -0.74203,0.44655 -2.83466,0.13281 -3.86328,0.13281 -1.67969,0 -3.5859,-0.0179 -4.89258,0.25782 -1.12414,0.23689 -2.37541,-0.30008 -3.73633,0 -3.6431,0.80235 -8.06911,0.13341 -11.58789,0.90429 h -2.18555 c -1.88766,0.44764 -4.11587,0.28236 -6.18554,0.76953 -3.93418,0.92576 -7.90559,1.29403 -11.58203,2.44922 -7.71801,2.42575 -14.13782,6.62981 -18.16016,12.76758 -0.84888,1.29595 -1.26373,2.62802 -2.05664,4.00195 -0.54086,0.93705 -1.30082,2.196 -1.67383,3.22461 -1.44402,3.98445 -2.48861,8.19809 -3.60937,12.50977 -1.17836,4.53212 -1.2313,9.45024 -2.31641,14.05469 -0.30939,1.31177 0.0409,2.28089 -0.25977,3.61132 -0.61545,2.72694 -0.5094,6.26451 -1.15429,9.02539 -0.0431,1.11734 -0.09,2.23952 -0.13281,3.35743 -0.4058,1.81308 -0.0748,4.0624 -0.51172,6.05859 -0.5957,2.71902 -0.93809,7.81651 -0.77539,10.57227 l -0.38477,0.13086 c -0.49172,0.35491 -0.9393,0.019 -1.0293,-0.51563 0.26957,-0.42502 0.0977,-1.43205 0,-2.06445 -0.24425,-1.57856 0.002,-3.6252 -0.38476,-5.28907 -0.38153,-1.64238 -0.0937,-3.68667 -0.51758,-5.54101 -1.28292,-5.61216 -0.85704,-12.32119 -2.19141,-17.79883 l -0.125,-2.18945 c -0.27353,-1.1535 -0.47635,-2.65506 -0.77148,-3.74414 v -1.28711 c -1.89614,-7.44109 -2.71898,-14.8851 -5.79297,-21.02344 -0.59851,-1.19535 -0.73771,-2.36175 -1.41992,-3.47852 -3.19547,-5.23463 -6.93957,-9.51351 -12.23242,-12.64062 -5.36858,-3.1723 -12.14852,-4.05779 -19.05664,-5.80078 h -1.41407 c -2.46246,-0.57646 -5.71415,-0.56785 -8.24218,-1.16016 -1.37337,-0.0431 -2.74967,-0.09 -4.12305,-0.13281 -4.42757,-0.99201 -10.46375,-0.0747 -14.54883,-1.0293 -3.90533,-0.0431 -7.80951,-0.09 -11.71484,-0.13281 -0.0844,-0.24189 -0.12682,-0.50447 -0.13282,-0.90234 0.20627,-0.0719 0.31053,-0.10236 0.64454,-0.12696 0.25998,0.16546 1.21204,0.22989 1.67773,0.12696 1.76789,-0.3906 4.04444,0.18638 6.04688,-0.25782 1.44682,-0.32041 3.19613,0.0948 4.76562,-0.2539 1.15238,-0.25614 2.87516,-0.32283 4.12305,-0.39063 h 2.4414 c 3.3102,-0.82234 7.5364,-0.43361 10.81836,-1.16211 h 1.93164 c 1.67969,-0.4007 3.66979,-0.31119 5.53711,-0.76953 2.03235,-0.49905 4.29605,-0.59724 6.4375,-1.16015 3.30627,-0.86873 6.74955,-1.73809 9.65625,-2.9668 0.82398,-0.34812 1.53219,-0.35965 2.31836,-0.77735 0.43575,-0.23172 1.11822,-0.81075 1.54492,-1.02734 0.72117,-0.36623 1.27095,-0.36362 1.93164,-0.77734 8.13175,-5.08992 12.6006,-12.79835 15.83789,-22.82227 1.53164,-4.7418 1.96861,-9.9574 3.21876,-14.96484 0.0859,-0.90258 0.17251,-1.80385 0.25781,-2.70703 1.19703,-4.84239 0.85382,-10.53354 2.06445,-15.47657 0.043,-0.98902 0.0843,-1.97578 0.12695,-2.96484 0.77992,-3.46164 0.37851,-7.52128 1.16016,-11.08984 0.42182,-1.92498 -0.0749,-3.92574 0.51172,-5.67383 z m -215.98633,9.01953 6.54688,12.52148 c -5.70973,2.98763 -11.68766,5.51071 -17.88868,7.46094 l -0.006,0.006 c -10.69498,3.37082 -22.0175,4.96614 -33.35156,4.36133 l 0.75196,-14.10938 c 9.50562,0.50723 19.16901,-0.83406 28.35742,-3.73046 v -0.006 c 5.35092,-1.68262 10.57234,-3.87848 15.58984,-6.50391 z m 303.76172,108.6543 c 13.14536,0 24.7277,1.76846 34.73633,5.30078 10.00807,3.53233 18.34541,7.94565 25.01953,13.24414 6.66906,5.29855 11.71999,11.14103 15.15625,17.51562 3.43061,6.37968 5.3446,12.41393 5.74023,18.10352 0.19328,2.35455 -0.54398,4.26851 -2.20898,5.74023 -1.66953,1.4717 -3.58299,2.20899 -5.74024,2.20899 h -20.60156 c -3.33904,0 -5.84476,-0.63564 -7.50976,-1.91406 -1.66951,-1.27391 -3.19,-2.99448 -4.56055,-5.15625 -2.94398,-4.90287 -7.41104,-9.16925 -13.39453,-12.80274 -5.98856,-3.62897 -14.8619,-5.44726 -26.63672,-5.44726 -5.1052,0 -9.96385,0.54305 -14.57227,1.61914 -4.61293,1.08061 -8.63914,2.65085 -12.07031,4.71093 -3.43569,2.0606 -6.1343,4.56578 -8.09375,7.50977 -1.96397,2.94341 -2.9414,6.28021 -2.94141,10.00586 0,4.51685 0.92958,8.19288 2.79688,11.03516 1.86283,2.84731 5.00286,5.30463 9.41797,7.36523 4.41574,2.06063 10.25316,3.9682 17.51562,5.73437 7.25797,1.76615 16.28723,3.83049 27.08203,6.18555 11.77424,2.55232 21.92654,5.54539 30.4629,8.97656 8.53637,3.43568 15.49876,7.55901 20.89843,12.36524 5.39516,4.81131 9.42133,10.35289 12.07032,16.63086 2.64951,6.28302 3.97656,13.44221 3.97656,21.48633 0,8.83082 -1.96721,17.02769 -5.89063,24.58007 -3.92795,7.55637 -9.5174,14.03455 -16.77539,19.42969 -7.26248,5.39966 -16.1901,9.66605 -26.78711,12.80274 -10.59699,3.13672 -22.47629,4.71093 -35.62109,4.71093 -10.9926,0 -21.48355,-1.32701 -31.49219,-3.97656 -10.0081,-2.64897 -18.89434,-6.47643 -26.64453,-11.48047 -7.75473,-5.00459 -13.97791,-11.03496 -18.6875,-18.09961 -4.70959,-7.06467 -7.36089,-14.9113 -7.94922,-23.54883 -0.19782,-2.35508 0.53946,-4.26796 2.20899,-5.74023 1.66498,-1.47172 3.57845,-2.20898 5.74023,-2.20898 h 20.60156 c 3.33451,0 5.88814,0.5864 7.6543,1.76367 1.76617,1.17724 3.23821,2.94571 4.41602,5.30078 1.37053,2.55287 3.04188,5.104 5.00585,7.65234 1.95945,2.55236 4.61018,4.81007 7.94922,6.76953 3.33451,1.96396 7.50321,3.581 12.50782,4.85547 5.00404,1.27842 11.22918,1.91406 18.68945,1.91406 5.88683,0 11.57986,-0.44085 17.07617,-1.32421 5.49177,-0.88282 10.30065,-2.35539 14.42188,-4.41602 4.12068,-2.06066 7.45548,-4.60916 10.00781,-7.6543 2.54836,-3.04006 3.82617,-6.81321 3.82617,-11.33007 0,-4.31398 -1.37492,-7.84503 -4.12109,-10.59571 -2.75013,-2.74563 -6.91682,-5.09851 -12.50977,-7.0625 -5.59295,-1.95943 -12.51004,-3.8315 -20.75195,-5.59765 -8.24192,-1.76617 -17.76049,-4.0169 -28.55078,-6.76758 -9.81479,-2.35508 -18.40065,-5.15024 -25.75977,-8.38867 -7.35912,-3.23787 -13.44377,-7.21618 -18.25,-11.92579 -4.81133,-4.71014 -8.39101,-10.25175 -10.74609,-16.63085 -2.35455,-6.37513 -3.53125,-13.97974 -3.53125,-22.81055 0,-8.83084 1.96267,-16.97331 5.89062,-24.4336 3.92341,-7.45578 9.31418,-13.83043 16.18555,-19.1289 6.86683,-5.2985 15.05973,-9.4705 24.58008,-12.51563 9.51638,-3.04008 19.77162,-4.56054 30.76367,-4.56054 z m -416.45898,2.9414 h 126.875 c 2.1567,0 4.015,0.79102 5.58789,2.35938 1.56836,1.57344 2.35937,3.43259 2.35937,5.58984 v 20.90235 c 0,2.1618 -0.79101,4.0215 -2.35937,5.58984 -1.57289,1.57289 -3.43119,2.35351 -5.58789,2.35352 h -95.08204 v 46.80664 h 88.60157 c 2.15729,0 4.02283,0.7832 5.5957,2.35156 1.56836,1.57287 2.35156,3.43844 2.35156,5.5957 v 20.89844 c 0,2.16178 -0.7832,4.02734 -2.35156,5.5957 -1.57287,1.57287 -3.43841,2.35156 -5.5957,2.35156 h -88.60157 v 48.86329 h 97.4336 c 2.15724,0 4.02283,0.79101 5.5957,2.35937 1.56836,1.57346 2.35352,3.43312 2.35352,5.58984 v 20.89649 c 0,2.16179 -0.78516,4.0273 -2.35352,5.5957 -1.57287,1.57343 -3.43846,2.35352 -5.5957,2.35352 H 146.98438 c -2.16124,0 -4.0215,-0.78009 -5.58985,-2.35352 -1.57343,-1.5684 -2.35351,-3.43391 -2.35351,-5.5957 v -190.1543 c 0,-2.15725 0.78008,-4.0164 2.35351,-5.58984 1.56835,-1.56836 3.42861,-2.35938 5.58985,-2.35938 z m 164.0957,0 h 72.70898 c 14.51986,0 27.12411,1.91346 37.82227,5.74024 10.69306,3.82677 19.62127,9.27324 26.78711,16.33789 7.16129,7.06466 12.65956,15.60465 16.48633,25.61328 3.82678,10.00806 6.12734,21.19346 6.91406,33.55664 0.78164,14.52437 0.78164,29.04211 0,43.5625 -0.78672,12.36318 -3.08728,23.54856 -6.91406,33.55664 -3.82677,10.00807 -9.27129,18.54473 -16.33594,25.60938 -7.06467,7.06465 -15.85182,12.50913 -26.34766,16.33593 -10.50035,3.82677 -22.80818,5.74024 -36.9375,5.74024 h -74.18359 c -2.1618,0 -4.0215,-0.78009 -5.58985,-2.35352 -1.57288,-1.5684 -2.35937,-3.43391 -2.35937,-5.5957 v -190.1543 c 0,-2.15725 0.78649,-4.0164 2.35937,-5.58984 1.56835,-1.56836 3.42805,-2.35938 5.58985,-2.35938 z m 362.76953,0 h 20.01758 c 3.92342,0 6.81626,1.08103 8.68359,3.23828 1.86281,2.1618 3.18984,3.7315 3.97656,4.71094 l 55.92774,97.13867 55.92773,-97.13867 c 0.78219,-0.97944 2.10532,-2.54914 3.97266,-4.71094 1.86282,-2.15725 4.75369,-3.23828 8.68164,-3.23828 h 20.01953 c 2.15733,0 4.02227,0.79102 5.5957,2.35938 1.56834,1.57344 2.35157,3.43259 2.35157,5.58984 v 190.1543 c 0,2.16179 -0.78323,4.0273 -2.35157,5.5957 -1.57343,1.57343 -3.43837,2.35352 -5.5957,2.35352 h -23.8457 c -2.16123,0 -4.02094,-0.78009 -5.58985,-2.35352 -1.57289,-1.5684 -2.35351,-3.43391 -2.35351,-5.5957 V 718.82617 L 781,785.06055 c -0.98454,1.57289 -2.35494,3.19045 -4.12109,4.85547 -1.76618,1.66953 -4.02394,2.5039 -6.76953,2.5039 h -15.30665 c -2.7501,0 -5.00922,-0.83437 -6.77539,-2.5039 -1.76616,-1.66502 -3.13523,-3.28258 -4.11523,-4.85547 l -38.26953,-66.23438 v 115.0918 c 0,2.16179 -0.78851,4.0273 -2.35742,5.5957 -1.57289,1.57343 -3.43318,2.35352 -5.58985,2.35352 h -23.8457 c -2.16178,0 -4.02148,-0.78009 -5.58984,-2.35352 -1.57287,-1.5684 -2.35938,-3.43391 -2.35938,-5.5957 v -190.1543 c 0,-2.15725 0.78651,-4.0164 2.35938,-5.58984 1.56836,-1.56836 3.42806,-2.35938 5.58984,-2.35938 z m -330.97656,36.79493 v 132.46289 h 40.91601 c 8.04412,0 15.00905,-1.12244 20.89649,-3.38086 5.88684,-2.25336 10.78884,-5.34354 14.71679,-9.27149 3.92341,-3.92345 6.92377,-8.63845 8.98438,-14.13476 2.06062,-5.4918 3.28016,-11.37709 3.67578,-17.66016 0.78219,-14.52039 0.78219,-29.03813 0,-43.5625 -0.39562,-6.27853 -1.61516,-12.11595 -3.67578,-17.51562 -2.06061,-5.39513 -5.10689,-10.10234 -9.12695,-14.12696 -4.02463,-4.02006 -9.08393,-7.16541 -15.16407,-9.42383 -6.08519,-2.25336 -13.34605,-3.38672 -21.78125,-3.38671 z" />
</svg>
